<svg height="316.623pt" viewBox="1 1 316.623 316.623" width="316.623pt" xmlns="http://www.w3.org/2000/svg"><path d="m65.585938 109.308594 71.050781-109.308594 71.054687 109.308594zm0 0" fill="#e9686a"/><path d="m0 163.964844h153.035156v153.035156h-153.035156zm0 0" fill="#5f79ba"/><path d="m207.691406 65.585938v218.621093c0 18.113281 24.46875 32.792969 54.652344 32.792969 30.1875 0 54.65625-14.679688 54.65625-32.792969v-218.621093zm0 0" fill="#fdbd40"/><path d="m153.035156 163.964844h-153.035156l54.65625-54.65625h153.035156zm0 0" fill="#87cee9"/><path d="m207.691406 262.34375-54.65625 54.65625v-153.035156l54.65625-54.65625zm0 0" fill="#cfdfe8"/><path d="m262.34375 300.601562c-21.328125 0-35.769531-8.722656-38-15.023437-.210938-.585937-.316406-1.203125-.316406-1.824219l.015625-65.136718c.003906-3.015626 2.449219-5.460938 5.464843-5.460938 3.019532 0 5.464844 2.445312 5.464844 5.460938v.003906l-.015625 63.359375c8 5.578125 17.652344 8.289062 27.386719 7.691406 17.152344 0 26.539062-6.488281 27.949219-7.996094 1.394531-2.675781 4.695312-3.710937 7.371093-2.316406 2.476563 1.292969 3.578126 4.242187 2.558594 6.839844-2.296875 5.886719-17.121094 14.402343-37.878906 14.402343zm0 0" fill="#f4f4e6"/><path d="m317 65.585938c0-18.109376-24.46875-32.792969-54.65625-32.792969-30.183594 0-54.652344 14.683593-54.652344 32.792969 0 18.109374 24.46875 32.792968 54.652344 32.792968 30.1875 0 54.65625-14.683594 54.65625-32.792968zm0 0" fill="#fcf05a"/><path d="m65.585938 109.308594 71.050781-109.308594v109.308594zm0 0" fill="#f98c96"/><g fill="#f4f4e6"><path d="m54.65625 300.601562h-32.792969c-3.019531.003907-5.464843-2.441406-5.464843-5.460937 0 0 0 0 0-.003906v-43.722657c0-3.019531 2.445312-5.464843 5.464843-5.464843 3.015625 0 5.464844 2.445312 5.464844 5.464843v38.257813h27.328125c3.015625 0 5.464844 2.449219 5.464844 5.464844 0 3.019531-2.449219 5.464843-5.464844 5.464843zm0 0"/><path d="m87.449219 300.601562h-10.933594c-3.015625 0-5.464844-2.445312-5.464844-5.464843 0-3.015625 2.449219-5.464844 5.464844-5.464844h10.933594c3.015625 0 5.464843 2.449219 5.464843 5.464844 0 3.019531-2.449218 5.464843-5.464843 5.464843zm0 0"/><path d="m229.550781 202.222656c-3.015625.003906-5.464843-2.441406-5.464843-5.460937 0 0 0 0 0-.003907v-10.929687c0-3.019531 2.449218-5.464844 5.464843-5.464844 3.019531 0 5.464844 2.445313 5.464844 5.464844v10.929687c.003906 3.019532-2.441406 5.464844-5.460937 5.464844 0 0 0 0-.003907 0zm0 0"/></g></svg>