<?xml version="1.0" encoding="iso-8859-1"?>
<!-- Generator: Adobe Illustrator 19.0.0, SVG Export Plug-In . SVG Version: 6.00 Build 0)  -->
<svg version="1.1" id="Capa_1" xmlns="http://www.w3.org/2000/svg" xmlns:xlink="http://www.w3.org/1999/xlink" x="0px" y="0px"
	 viewBox="0 0 480 480" style="enable-background:new 0 0 480 480;" xml:space="preserve">
<path id="XMLID_891_" d="M140,430c0,5.522-4.478,10-10,10H70c-16.542,0-30-13.458-30-30v-40c0-5.522,4.478-10,10-10s10,4.478,10,10
	v40c0,5.514,4.486,10,10,10h60C135.522,420,140,424.478,140,430z M200,158c-5.522,0-10,4.478-10,10v2c0,5.522,4.478,10,10,10
	s10-4.478,10-10v-2C210,162.478,205.522,158,200,158z M150,60h30c5.514,0,10,4.486,10,10v50c0,5.522,4.478,10,10,10s10-4.478,10-10
	V70c0-16.542-13.458-30-30-30h-30c-5.522,0-10,4.478-10,10S144.478,60,150,60z M430,350c-5.522,0-10,4.478-10,10v50
	c0,5.514-4.486,10-10,10h-30c-5.522,0-10,4.478-10,10s4.478,10,10,10h30c16.542,0,30-13.458,30-30v-50
	C440,354.478,435.522,350,430,350z M180,420h-2c-5.522,0-10,4.478-10,10s4.478,10,10,10h2c5.522,0,10-4.478,10-10
	S185.522,420,180,420z M480,270v170c0,22.056-17.944,40-40,40H40c-22.056,0-40-17.944-40-40V160.625
	c0-2.761,1.141-5.398,3.153-7.288s4.718-2.853,7.471-2.692l30.078,1.88c7.679,0.481,14.996-2.158,20.603-7.425
	C66.912,139.831,70,132.693,70,125c0-7.694-3.088-14.832-8.695-20.101s-12.926-7.912-20.603-7.424l-30.078,1.88
	c-2.754,0.164-5.459-0.802-7.471-2.692C1.141,94.773,0,92.136,0,89.375V40C0,17.944,17.944,0,40,0h170c22.056,0,40,17.944,40,40v190
	h58.73l-1.216-19.454c-0.816-13.055,3.853-26.011,12.809-35.544C329.279,165.468,341.919,160,355,160s25.721,5.468,34.677,15.002
	c8.956,9.533,13.625,22.489,12.809,35.544L401.27,230H440C462.056,230,480,247.944,480,270z M20,230h69.375
	c2.761,0,5.398,1.141,7.288,3.153c1.891,2.012,2.864,4.716,2.692,7.471l-1.88,30.078c-0.48,7.679,2.156,14.995,7.424,20.603
	C110.168,296.912,117.306,300,125,300s14.832-3.088,20.101-8.695c5.268-5.607,7.904-12.924,7.424-20.603l-1.88-30.078
	c-0.172-2.755,0.802-5.459,2.692-7.471c1.89-2.013,4.527-3.153,7.288-3.153H230V40c0-11.028-8.972-20-20-20H40
	c-11.028,0-20,8.972-20,20v38.73l19.454-1.216c13.053-0.811,26.01,3.853,35.544,12.809S90,111.919,90,125
	s-5.468,25.72-15.001,34.676c-9.533,8.955-22.483,13.623-35.545,12.81L20,171.27V230z M240.624,380.645l30.078,1.88
	c7.679,0.487,14.996-2.155,20.603-7.424C296.912,369.832,300,362.694,300,355s-3.088-14.832-8.695-20.101
	c-5.607-5.268-12.929-7.909-20.603-7.424l-30.078,1.88c-2.755,0.17-5.459-0.802-7.471-2.692c-2.013-1.89-3.153-4.527-3.153-7.288
	V250h-58.73l1.216,19.454c0.816,13.055-3.853,26.011-12.809,35.544C150.721,314.532,138.081,320,125,320
	s-25.721-5.468-34.677-15.002c-8.956-9.533-13.625-22.489-12.809-35.544L78.73,250H20v190c0,11.028,8.972,20,20,20h190v-69.375
	c0-2.761,1.141-5.398,3.153-7.288S237.872,380.485,240.624,380.645z M460,270c0-11.028-8.972-20-20-20h-49.375
	c-2.761,0-5.398-1.141-7.288-3.153c-1.891-2.012-2.864-4.716-2.692-7.471l1.88-30.078c0.48-7.679-2.156-14.995-7.424-20.603
	C369.832,183.088,362.694,180,355,180s-14.832,3.088-20.101,8.695c-5.268,5.607-7.904,12.924-7.424,20.603l1.88,30.078
	c0.172,2.755-0.802,5.459-2.692,7.471c-1.89,2.013-4.527,3.153-7.288,3.153H250v58.73l19.454-1.216
	c13.049-0.82,26.01,3.853,35.544,12.809S320,341.919,320,355s-5.468,25.721-15.002,34.677c-9.533,8.956-22.488,13.62-35.544,12.809
	L250,401.27V460h190c11.028,0,20-8.972,20-20V270z M430,300c-5.522,0-10,4.478-10,10v2c0,5.522,4.478,10,10,10s10-4.478,10-10v-2
	C440,304.478,435.522,300,430,300z"/>
<g>
</g>
<g>
</g>
<g>
</g>
<g>
</g>
<g>
</g>
<g>
</g>
<g>
</g>
<g>
</g>
<g>
</g>
<g>
</g>
<g>
</g>
<g>
</g>
<g>
</g>
<g>
</g>
<g>
</g>
</svg>
