<svg height="499.312pt" viewBox="0 0 499.312 499.312" width="499.312pt" xmlns="http://www.w3.org/2000/svg"><path d="m280 454.054688 59.640625-59.640626-11.3125-11.308593-48.328125 48.328125-37.089844-37.089844-11.308594 11.3125zm0 0"/><path d="m338.117188 373.3125 10.96875-10.964844 11.3125 11.3125-10.96875 10.96875zm0 0"/><path d="m348.308594 208.375 14.03125-14.027344 11.3125 11.3125-14.027344 14.027344zm0 0"/><path d="m274.339844 282.34375 64-64 11.3125 11.3125-64 64zm0 0"/><path d="m499.3125 280-131.3125-131.3125-24 24-32-32-43.3125 43.3125 32 32-60.6875 60.6875v-228.6875h-32v-48h-64v48h-48v-48h-64v48h-32v400h228.6875l51.3125 51.3125zm-22.625 0-196.6875 196.6875-108.6875-108.6875 196.6875-196.6875zm-292.6875 52.6875-20.6875-20.6875 20.6875-20.6875 20.6875 20.6875zm107.3125-148.6875 20.6875-20.6875 20.6875 20.6875-20.6875 20.6875zm-75.3125 116.6875-32-32-35.3125 35.3125h-132.6875v-112h208v100.6875zm-56-284.6875h32v32h-32zm-112 0h32v32h-32zm176 48v112h-208v-112zm-208 368v-112h132.6875l24 24-24 24 64 64zm0 0"/><path d="m32 80h16v16h-16zm0 0"/><path d="m32 112h16v48h-16zm0 0"/><path d="m32 208h16v16h-16zm0 0"/><path d="m32 240h16v48h-16zm0 0"/><path d="m32 336h16v16h-16zm0 0"/><path d="m32 368h16v48h-16zm0 0"/></svg>