<svg xmlns="http://www.w3.org/2000/svg" xmlns:xlink="http://www.w3.org/1999/xlink" viewBox="0 0 74.375 85" fill="white" fill-rule="evenodd"><use xlink:href="#A" x="2.188" y="2.5"/><symbol id="A" overflow="visible"><path d="M69.99 26.1v-8.45L61.196 7.93 46.802 40l14.394 32.06 8.794-9.743v-8.45l-2.93 2.013v-4.06l2.93-1.537V41.78l-2.93.077v-3.804l2.93.144v-8.283l-2.93-1.548v-2.853l2.93.597z" fill="#2e73b8"/><path d="M45.52 80l15.674-7.94V7.918L45.52 0 27.748 40.675 45.52 80z" fill="#5294cf"/><path d="M23.537 80H45.52V0H23.537L12.184 40.675 23.537 80z" fill="#2e73b8"/><path d="M23.537 80L7.722 72.06 2.745 40.675 7.722 7.918 23.493 0l.044 80z" fill="#205b99"/><path d="M67.058 51.822l-5.873 2.897-15.662 3.417H23.538L7.71 54.62V42.543l15.805 1.15h22.006l15.673-1.15 8.805-.74-2.942-.022v-3.56l2.898-.033-8.76-.652-15.673-.51H23.658l-15.947.387V25.247l.175-.033 15.772-3.75h21.864l15.673 3.75 5.862 3.163v-2.002l2.93-.243-8.794-6.215-15.673-5.12H23.658L7.71 20.094V7.918L.022 17.66v8.46l2.198.254V28.4L.022 29.737v8.46l2.198.022v3.56l-2.198.033v8.416l2.198 1.327v2.068L0 53.88l.022 8.427 7.69 9.743V59.873l15.816 4.932h21.995l15.673-4.9 8.794-6.027-2.93-.243v-1.803z" fill="#19486f"/></symbol></svg>