<svg xmlns="http://www.w3.org/2000/svg" xmlns:xlink="http://www.w3.org/1999/xlink" viewBox="0 0 74.375 85" fill="white" fill-rule="evenodd"><use xlink:href="#A" x="2.188" y="2.5"/><symbol id="A" overflow="visible"><path d="M70 55.054l-35-5.2-35 5.2L35 80 70 55.054z" fill="#b7ca9d"/><path d="M7.012 54.45l5.91 1.785L26.82 34.703 12.923 13.17l-5.91 2.293V54.45z" fill="#4b612c"/><path d="M33.86 52.595l-20.938 3.717V13.17l20.938 4.76v34.663z" fill="#759c3e"/><path d="M24.52 59.834l-8.16-2.468V4.127L24.52 0l24.183 31.493L24.52 59.834z" fill="#4b612c"/><path d="M52.5 53.278l-27.97 6.624V0L52.5 11.015v42.264z" fill="#759c3e"/><path d="M35 67.59L0 55.054v7.278L35 80v-12.4z" fill="#4b612c"/><path d="M70 62.322L35 80v-12.4l35-12.537v7.268z" fill="#759c3e"/><path d="M60.168 43.005h-8.49l-24.183 1.66L35 63.015l25.168-20z" fill="#b7ca9d"/><path d="M27.496 60.742L35 63.015l-.01-17.532-7.494-.82v16.078z" fill="#4b612c"/><path d="M60.168 43.005L35 45.483v17.532l25.168-7.658v-12.35z" fill="#759c3e"/></symbol></svg>