<svg xmlns="http://www.w3.org/2000/svg" xmlns:xlink="http://www.w3.org/1999/xlink" viewBox="0 0 85 85" fill="white" fill-rule="evenodd"><use xlink:href="#A" x="2.5" y="2.5"/><symbol id="A" overflow="visible"><path d="M80 48.357l-40-4.98-40 4.98L40 80l40-31.643z" fill="#fcbf92"/><path d="M0 48.357l40 12.09V80L0 59.733V48.357z" fill="#9d5025"/><path d="M80 48.357l-40 12.09V80l40-20.267V48.357z" fill="#f58534"/><path d="M5.165 31.168H0v11.495l5.165.95 5.74-6.157-5.74-6.288z" fill="#9d5025"/><path d="M10.906 43.138l-5.74.475V31.168h5.74v11.97z" fill="#f58534"/><path d="M14.777 16.832l-6.8 1.296v26.08l6.8 1.426L21 31.168l-6.224-14.336z" fill="#9d5025"/><path d="M21 44.92l-6.223.713V16.832l6.223.713V44.92z" fill="#f58534"/><path d="M28.035 22.633l-9.388.95v22.87l9.388 1.902L38 35.435l-9.965-12.802z" fill="#9d5025"/><path d="M34.364 47.287l-6.33 1.07V22.633l6.33.475v24.178z" fill="#f58534"/><g fill="#9d5025"><path d="M40 1.9l-6.33 2.02v45.516L40 50.722l6.33-24.416L40 1.9z"/><path d="M45.86 47.287l6.106 1.07 9.388-17.19-9.388-17.07-6.106.95v32.238z"/><path d="M61.353 31.168l-9.388-17.07-6.106.95"/><path d="M58.882 44.922l6.34.713 6.8-21.694-6.8-21.575-6.34 1.545v41z"/><path d="M69.094 43.138l5.74.475L80 22.158 74.835 0l-5.74 1.426v41.712z"/></g><path d="M40 1.9l6.33 2.02v45.516L40 50.722V1.9zM61.353 16l-9.388-1.902v34.26l9.388-1.902V16zm10.67-10.9l-6.8-2.734v43.27l6.8-1.427V5.1zM80 2.603L74.835 0v43.614l5.165-.95V2.603z" fill="#f58534"/></symbol></svg>