<svg xmlns="http://www.w3.org/2000/svg" xmlns:xlink="http://www.w3.org/1999/xlink" viewBox="0 0 69.063 85" fill="white" fill-rule="evenodd"><use xlink:href="#A" x="2.031" y="2.5"/><symbol id="A" overflow="visible"><path d="M64.876 44.664l-32.443-1.376L0 44.664l32.433 15.268 32.443-15.268z" fill="#fcbf92"/><path d="M.01 39.97h39V3.307L32.54 0 .01 16.576V39.97z" fill="#9d5025"/><path d="M65 56.468l-32.5-4.84-32.48 4.84L32.558 80 65 56.468z" fill="#fcbf92"/><g fill="#9d5025"><path d="M32.538 39.97H49.7V15.015l-5.01-2.05-12.15 3.62V39.97z"/><path d="M44.69 39.97h13.258V23.785l-3.79-1.16-9.468 1.64V39.97z"/><path d="M54.157 39.97h10.72L65 21.268l-3.255-1.327-7.588 1.405V39.97z"/></g><path d="M39 3.307L32.538 0v39.97h6.47V3.307zm10.7 11.708l-5-2.05V39.97h5V15.015zm8.246 8.77l-3.8-1.16V39.97h3.8V23.785zm3.8-3.845L65 21.268V39.97h-3.255V19.94zm3.13 31.718L32.433 59.93V47.98l32.443-3.317v6.995zm.124 4.8L32.433 68.205V80L65 63.356v-6.888z" fill="#f58534"/><path d="M.01 56.468l32.424 11.65V80L.01 63.434v-6.966zM0 44.663l32.433 3.317v11.95L0 51.658v-6.995z" fill="#9d5025"/></symbol></svg>