<svg xmlns="http://www.w3.org/2000/svg" xmlns:xlink="http://www.w3.org/1999/xlink" viewBox="0 0 63.75 85" fill="white" fill-rule="evenodd"><use xlink:href="#A" x="1.875" y="2.5"/><symbol id="A" overflow="visible"><path d="M10.476 27.97l-7-4.478L0 28.176l5.35.44 5.126-.644zm-5.798 5.796L30 34.888l25.322-1.122L30 24 4.678 33.766zm42.437-5.796l6.163.76L60 28.176l-6.008-8.82-6.877 8.615z" fill="#3c4929"/><path d="M21.695 59.893l14.482-2.36 13.977 2.273-14.482 9.6-13.978-9.502z" fill="#b7ca9d"/><path d="M23.305 27.083l-7.535-.907-7.76-6.732 7.76-10.868 7.535 1.63v16.878z" fill="#759c3e"/><path d="M4.678 15.054V8.82L30 0l6.695 9.863-13.39 3.737-7.535-1.64v14.02L30 24l7.577 23.22L30 80l-7.59-2.644v-7.473l-6.64-1.844V32.985l-11.092.78v-6.234L0 28.176V16.36l4.678-1.307z" fill="#4b612c"/><path d="M43.11 4.566l5.336 1.854 6.877 2.4v6.234L60 16.36v11.815l-4.678-.644v6.234l-11.092-.78V40h11.092v6.4l-5.154.322V53.2l-12.59 1.746v7.473l12.563-2.605.028 6.595-12.59 3.473v7.473L30 80V24l6.695.927V13.6L30 11.96V0l13.11 4.566z" fill="#759c3e"/><path d="M37.577 10.107L30 8l-14.23 3.96 7.535 1.64 14.272-3.493z" fill="#3c4929"/><path d="M36.695 11.96h7.535v14.02l-7.535-1.054V11.96z" fill="#4b612c"/><path d="M15.77 11.96L30 8l2.997.84 4.58 1.268 6.653 1.854-7.535 1.64L30 11.96l-6.695 1.64-7.535-1.64z" fill="#3c4929"/></symbol></svg>