<svg xmlns="http://www.w3.org/2000/svg" xmlns:xlink="http://www.w3.org/1999/xlink" viewBox="0 0 74.375 85" fill="white" fill-rule="evenodd"><use xlink:href="#A" x="2.188" y="2.5"/><symbol id="A" overflow="visible"><path d="M9.822 68.088L0 63.444V16.556l9.822-4.644L27.3 41.62 9.822 68.088z" fill="#8c3123"/><path d="M16.356 66.244l-6.534 1.844V11.912l6.534 1.678 12.996 27.542-12.996 25.112z" fill="#e05243"/><path d="M35 58.722l30.537 6.83 3.01-45.307-39.184 1.132L35 58.722z" fill="#8c3123"/><path d="M36.814 26.488l6.782 1.102 21.932-2.917L44.4 10.85 37 20.07l-.196 6.42z" fill="#5e1f18"/><path d="M16.356 71.18L35 80l5.936-38.546L35 0 16.356 8.82v62.36z" fill="#8c3123"/><path d="M70 16.566l-.02-.01L35 0v80l10.47-4.956V18.976l20.056 5.698V65.55l4.452-2.107V25.932l.02.01v-9.376z" fill="#e05243"/></symbol></svg>