<svg xmlns="http://www.w3.org/2000/svg" xmlns:xlink="http://www.w3.org/1999/xlink" viewBox="0 0 74.375 85" fill="white" fill-rule="evenodd"><use xlink:href="#A" x="2.188" y="2.5"/><symbol id="A" overflow="visible"><path d="M22.498 48.37L35 49.815l11.553-8.966L35 30.166 22.5 31.63v16.74zm34.568-32.84l7.1-1.707L69.39 34.77l-5.225 27.62-7.1-.985V15.53z" fill="#692f56"/><path d="M64.167 60.448L70 63.434v-46.85l-5.833-2.76v46.624z" fill="#ad688b"/><path d="M57.065 54.74l7.1.976L35 80l-7.802-18.215 29.867-7.044z" fill="#cfb2c1"/><path d="M12.935 64.47l-7.1 1.707-4.03-47.678 11.13 1.66V64.47z" fill="#ad688b"/><path d="M12.934 25.26l-7.1-.976L35 0 42.8 18.215 12.934 25.26z" fill="#512843"/><path d="M42.8 61.786l-18.89-4.46-7.544 1.366L35.04 79.24l7.76-17.454z" fill="#cfb2c1"/><path d="M27.198 18.215L34.97.02l18.665 21.288-7.544 1.366-18.89-4.46z" fill="#512843"/><path d="M47.5 48.37L35 49.815v-19.65l12.5 1.463V48.37zM70 63.434L35 80V64l31.094-8.83 2.113.595L70 63.434z" fill="#ad688b"/><path d="M16.366 58.693L35 63.99v16l-18.634-8.82V58.693z" fill="#692f56"/><path d="M53.634 21.308L35 16v-16l18.634 8.8v12.478z" fill="#ad688b"/><g fill="#692f56"><path d="M0 16.566L35 0v16L0 25.932v-9.366z"/><path d="M5.833 20.117L0 16.566v46.85l5.833 2.76v-46.06z"/></g></symbol></svg>