<svg xmlns="http://www.w3.org/2000/svg" xmlns:xlink="http://www.w3.org/1999/xlink" viewBox="0 0 74.375 85" fill="white" fill-rule="evenodd"><use xlink:href="#A" x="2.188" y="2.5"/><symbol id="A" overflow="visible"><path d="M8.447 29.053l7.892-1.502 9.392 8.634-9.392 6.8-7.892-.36v-13.57z" fill="#8c3123"/><path d="M42.697 47.054l17.54 20.976L70 47.005l-16.38-.956-10.923 1.005zm-15.394 0L9.762 68.03 0 47.005l16.38-.956 10.923 1.005z" fill="#f2b0a9"/><path d="M70 47.005l-9.762 1.376v19.65L70 63.395v-16.4zM28.65 29.092l-12.3-1.54v15.434l12.3-.35v-13.54z" fill="#e05243"/><path d="M41.227 29.093l12.31-1.56 6.7 8.283-6.7 7.18-12.31-.36v-13.54z" fill="#8c3123"/><path d="M61.43 29.034l-7.892-1.502v15.463l7.892-.36v-13.6z" fill="#e05243"/><path d="M22.37 26.4L35 24l9.27 11.258L35 43.844l-12.63-.585V26.4z" fill="#8c3123"/><path d="M45.38 18.976l-10.44 2.312-10.44-2.312L35 0l10.38 18.976z" fill="#5e1f18"/><path d="M42.697 47.054l17.54 1.327v19.65l-17.54-4.488v-16.49zM0 47.005l9.762 1.376v19.65L0 63.395v-16.4z" fill="#8c3123"/><path d="M27.303 47.054L9.762 48.38v19.65l17.54-4.488V47.054z" fill="#e05243"/><path d="M53.538 49.327L35 47.66l-18.538 1.668L35 80l18.538-30.673z" fill="#f2b0a9"/><path d="M53.538 49.327L35 51.95V80l18.538-8.8V49.327z" fill="#e05243"/><path d="M16.462 49.327L35 51.95V80l-18.538-8.8V49.327z" fill="#8c3123"/><path d="M47.506 26.4L35 24v19.844l12.506-.576V26.4zM45.38 4.956L35 0v16l10.38 2.976V4.956z" fill="#e05243"/><path d="M24.498 4.956L35 0v16l-10.502 2.976V4.956z" fill="#8c3123"/></symbol></svg>