<svg xmlns="http://www.w3.org/2000/svg" xmlns:xlink="http://www.w3.org/1999/xlink" viewBox="0 0 72 82" fill="white" fill-rule="evenodd"><use xlink:href="#A" x=".5" y=".5"/><symbol id="A" overflow="visible"><path d="M2.25 45.25L0 45V25.942l2.25-.692v20z" fill="#4b612c"/><path d="M9.966 26.303L2.25 25.25v20L10 45l-.034-18.697z" fill="#759c3e"/><path d="M7.008 18.624l5.906-1.902L13 46.25l-6-.5.008-27.126z" fill="#4b612c"/><path d="M24.5 19l-11.586-2.278L13 46.25 24.5 45V19z" fill="#759c3e"/><path d="M20 47l15 1 34.65-8L35 0 20 7.5V47z" fill="#4b612c"/><path d="M70 57.405L34.95 51.2 0 57.405 34.95 80 70 57.405z" fill="#b7ca9d"/><path d="M.03 57.405v6.04L35.02 80V69.922" fill="#4b612c"/><path d="M69.97 57.405v6.04L34.98 80V69.922" fill="#759c3e"/><path d="M50 47l-6.5-.5V40H50v7zm13.15-1l-6.65-.25-.1-5.75h6.75z" fill="#4b612c"/><path fill="#759c3e" d="M50 46.93l7-.5V40h6v6l7-.5V16.566L35 0v48l9-.643V40h6z"/></symbol></svg>