<svg xmlns="http://www.w3.org/2000/svg" xmlns:xlink="http://www.w3.org/1999/xlink" viewBox="0 0 85 85" fill="white" fill-rule="evenodd"><use xlink:href="#A" x="2.5" y="2.5"/><symbol id="A" overflow="visible"><path d="M0 41.58C0 20.293 17.84 3.157 40 3.157S80 20.293 80 41.58 62.16 80 40 80 0 62.864 0 41.58z" fill="#9d5025"/><path d="M0 38.422C0 17.136 17.84 0 40 0s40 17.136 40 38.422-17.84 38.422-40 38.422S0 59.707 0 38.422z" fill="#f58536"/><path d="M40 66.97l-.63-.215c-4.734-1.9-8.916-4.877-12.185-8.674-3.587-3.994-6.373-8.592-8.216-13.56-2.546-7.088-3.787-14.548-3.667-22.046v-1.818h1.893c1.71 0 4.9-.543 6.152-1.755 1.24-1.422 2.003-3.168 2.195-5.013l.092-1.174 1.144-.417C31.02 10.813 35.485 9.995 40 9.874c4.5.154 8.97.967 13.224 2.412l1.17.417.092 1.187c.18 1.823.926 3.552 2.143 4.962 1.183 1.136 4.666 1.616 6.165 1.68l1.853.076v1.78a62.53 62.53 0 0 1-3.615 22.096c-1.826 4.973-4.594 9.58-8.163 13.586-3.267 3.803-7.45 6.784-12.185 8.687zM19.244 24.192c.29 12.98 3.944 23.775 10.7 31.288 2.75 3.188 6.178 5.77 10.056 7.576 3.878-1.804 7.308-4.387 10.056-7.576 6.73-7.576 10.41-18.36 10.7-31.39-2.024-.265-5.127-.934-6.862-2.588-1.602-1.693-2.665-3.792-3.063-6.048-3.5-1.108-7.148-1.737-10.83-1.87a38.88 38.88 0 0 0-10.818 1.831c-.383 2.267-1.437 4.38-3.036 6.086-1.957 1.558-4.367 2.498-6.9 2.69z"/><path d="M51.922 36.654c-2.366 2.273-9.583 7.11-12.33 9.76v-7.576H7.742v-4.533h31.784v-7.462c2.616 2.513 9.832 7.35 12.396 9.81z"/></symbol></svg>