<svg xmlns="http://www.w3.org/2000/svg" xmlns:xlink="http://www.w3.org/1999/xlink" viewBox="0 0 79.688 85" fill="white" fill-rule="evenodd"><use xlink:href="#A" x="2.344" y="2.5"/><symbol id="A" overflow="visible"><path d="M68.744 11.283L75 14.2v51.42l-6.256 2.938L58.843 40l9.9-28.717z" fill="#5294cf"/><path d="M6.245 11.283L0 14.2v51.42l6.245 2.938L21.875 40 6.245 11.283zm31.25 49.887l31.25 7.376V11.283l-31.25 7.376v42.51z" fill="#205b99"/><g fill="#5294cf"><path d="M37.494 61.17l-31.25 7.376V11.283l31.25 7.376V61.17z"/><path d="M44.99 80l11.953-5.78V5.78L44.99 0 33.126 38.042 44.99 80z"/></g><path d="M29.998 80l-11.942-5.78V5.78L29.998 0l10.625 40-10.625 40z" fill="#205b99"/><path d="M29.998 0h15.004v80H29.998z" fill="#2e73b8"/></symbol></svg>