<svg xmlns="http://www.w3.org/2000/svg" xmlns:xlink="http://www.w3.org/1999/xlink" viewBox="0 0 85 85" fill="white" fill-rule="evenodd"><use xlink:href="#A" x="2.5" y="2.5"/><symbol id="A" overflow="visible"><path d="M50.16 62.975V50.7l-5.018-5.22-3.308-3.462 8.326-8.683v-12.58h5.885v-4.013L40 5.245 23.955 16.732v4.013h5.885v12.578l8.326 8.683-3.308 3.462-5.018 5.22v12.285l-5.885-3.72v4.013L40 80l16.045-16.732v-4.013l-5.885 3.72zM30.672 42.007v-4.013l-16.045-4.717H0v17.46h14.627v8.002l16.045-16.732zM80 33.277H65.384l-16.056 4.717v4.013L65.384 58.74v-8.002H80v-17.46z" fill="#9d5025"/><path d="M50.16 58.962V46.677l-8.326-8.683 3.308-3.46 5.018-5.222v-12.58h5.885L40 0 23.955 16.732h5.885v12.58l5.018 5.222 3.308 3.46-8.326 8.683v12.578h-5.885L40 75.987l16.045-16.732H50.16v-.293zM30.672 37.994L14.627 21.25v8.014H0v17.46h14.627v8.002l16.045-16.732zM80 29.264H65.384V21.25L49.328 37.994l16.056 16.732v-8.002H80v-17.46z" fill="#f58536"/></symbol></svg>