<svg xmlns="http://www.w3.org/2000/svg" xmlns:xlink="http://www.w3.org/1999/xlink" viewBox="0 0 63.75 85" fill="white" fill-rule="evenodd"><use xlink:href="#A" x="1.875" y="2.5"/><symbol id="A" overflow="visible"><path d="M19.71 4.956V40h-4.247v33.003L30 80l8.746-40L30 0 19.71 4.956z" fill="#9d5025"/><path d="M30 0v80l10.29-4.956V40h4.247V6.997L30 0z" fill="#f58536"/><path d="M60 29.777L41.6 31.45l-6.042-.73 19.166-18.805L60 29.777z" fill="#6b3a19"/><path d="M54.734 11.915L60 14.45v15.326l-5.266-1.01v-16.85z" fill="#f58536"/><path d="M35.568 30.72l19.166-1.953v-16.85L35.568 16.9v13.81z" fill="#9d5025"/><path d="M0 50.224l18.39-1.672 6.042.73L5.266 68.086 0 50.224z" fill="#fbbf93"/><path d="M5.266 68.086L0 65.55V50.224l5.266 1.07v16.793z" fill="#9d5025"/><path d="M24.432 49.28L5.266 51.293v16.793l19.166-4.995V49.28z" fill="#f58536"/></symbol></svg>