<svg xmlns="http://www.w3.org/2000/svg" xmlns:xlink="http://www.w3.org/1999/xlink" viewBox="0 0 74.375 85" fill="white" fill-rule="evenodd"><use xlink:href="#A" x="2.188" y="2.5"/><symbol id="A" overflow="visible"><path d="M0 63.44l4.455 2.11 7.874-25.5L4.455 14.45 0 16.56v46.88z" fill="#9d5025"/><path d="M13.078 16.395L4.455 14.48v51.07l8.623-1.914v-47.24z" fill="#f58536"/><path d="M9.814 11.914l6.54-3.1 8.16 31.225-8.16 31.147-6.54-3.1v-56.17z" fill="#9d5025"/><path d="M29.75 67.026L16.353 71.07V8.814l13.397 4.053v54.16z" fill="#f58536"/><path d="M60.166 19.757h5.36V58.58l-5.36-.282V19.757z" fill="#9d5025"/><path d="M39.378 20.32l6.016-2.935 19.7 2.37.585 4.966-5.4.72-20.91-5.122z" fill="#6b3a19"/><path d="M39.553 59.68l6.005 2.935 20.295-7.347-5.39-.71-20.91 5.12z" fill="#fbbf93"/><g fill="#9d5025"><path d="M41.072 51.438L51.8 52.8V27.2l-10.727 1.35v22.886z"/><path d="M24.514 75.044L34.985 80l8.992-40.058L34.985 0l-10.47 4.956v70.088z"/></g><path d="M34.995 0v80L70 63.43V16.57zm30.53 55.326l-20.07 5.705V18.97l20.06 5.695zM51.8 27.2v25.675L62.957 40.04 51.8 27.2z" fill="#f58536"/></symbol></svg>