<svg xmlns="http://www.w3.org/2000/svg" xmlns:xlink="http://www.w3.org/1999/xlink" viewBox="0 0 85 85" fill="white" fill-rule="evenodd"><use xlink:href="#A" x="2.5" y="2.5"/><symbol id="A" overflow="visible"><path d="M0 41.58C0 20.293 17.84 3.157 40 3.157S80 20.293 80 41.58 62.16 80 40 80 0 62.864 0 41.58z" fill="#9d5025"/><path d="M0 38.422C0 17.136 17.84 0 40 0s40 17.136 40 38.422-17.84 38.422-40 38.422S0 59.707 0 38.422z" fill="#f58536"/><path d="M51.672 7.387V21.34H28.327V7.387zm18.06 40.378V59.13h-11.83V47.765zm-14.958 0V59.13h-11.83V47.765zm-18.205 0V59.13H24.74V47.765zm-14.97 0V59.13H9.78V47.765z"/><path d="M14.63 37.93h2.13v11.15h-2.13z"/><path d="M14.63 37.93H31.72v2.045H14.63z"/><path d="M29.6 37.93h2.13v11.15H29.6zm18.205 0h2.13v11.15h-2.13z"/><path d="M47.795 37.93h17.088v2.045H47.795z"/><path d="M62.754 37.93h2.13v11.15h-2.13zm-40.63-7.955h2.13v8.977h-2.13zM38.935 19.28h2.13v10.86h-2.13z"/><path d="M22.123 29.116h35.32v2.045h-35.32z"/><path d="M55.314 29.975h2.13v8.977h-2.13z"/></symbol></svg>