<svg xmlns="http://www.w3.org/2000/svg" xmlns:xlink="http://www.w3.org/1999/xlink" viewBox="0 0 85 85" fill="white" fill-rule="evenodd"><use xlink:href="#A" x="2.5" y="2.5"/><symbol id="A" overflow="visible"><path d="M30.904 72.366l-8.268-2.304-7.813-8.89 8.71.722 7.37 10.474z" fill="#b8852e"/><path d="M30.904 72.365l5.913-12.36-5.528-.78-7.755 2.665 7.37 10.474z" fill="#d9a741"/><path d="M11.8 66.51l-4.64-1.303-5.12-5.83 5.434.85L11.8 66.51z" fill="#b8852e"/><path d="M11.79 66.512l3.335-6.96-3.114-.442-4.548 1.117 4.327 6.284z" fill="#d9a741"/><path d="M0 59.576l4.746.966L28 40.36 4.746 17.76 0 20.146v39.43z" fill="#876929"/><path d="M23.102 21.74v37.102l-18.356 1.7V17.76l18.356 3.98z" fill="#d9a741"/><path d="M10.612 61.798l8.14 1.64L41.236 37.45 18.752 10.695l-8.14 4.108v46.995z" fill="#876929"/><path d="M65.236 25.43v32.04l-46.484 5.97V10.695L65.236 25.43z" fill="#d9a741"/><path d="M56.828 80l-11.743-3.282-11.102-12.64 12.385 1.036L56.828 80z" fill="#b8852e"/><path d="M56.828 80l8.408-17.562-7.86-1.117-11.01 3.794L56.828 80z" fill="#d9a741"/><path d="M28 65.173l11.977 2.304 16.245-33.74L39.977 0 28 6.04v59.133z" fill="#876929"/><path d="M39.977 67.478L80 59.482V19.97L39.977 0v67.478z" fill="#d9a741"/></symbol></svg>