<svg xmlns="http://www.w3.org/2000/svg" xmlns:xlink="http://www.w3.org/1999/xlink" viewBox="0 0 74.375 85" fill="white" fill-rule="evenodd"><use xlink:href="#A" x="2.188" y="2.5"/><symbol id="A" overflow="visible"><g fill="#876929"><path d="M30.032 57.55l35.503 7.998L70 63.43V16.57l-4.465-2.12-35.503 7.88v35.22z"/><path d="M30.032 15.957V64.1l23.597 7.075 6.538-3.1v-56.17l-6.538-3.1-23.597 7.143z"/></g><path d="M60.167 68.085l-6.538 3.1V8.814l6.538 3.1v56.17zM70 63.43l-4.465 2.12v-51.1L70 16.57v46.86z" fill="#d9a741"/><path d="M35 0L0 16.57v46.87L35 80l10.47-4.956V4.956zM24.53 56.365l-10.407-2.323V25.957l10.407-2.294z" fill="#876929"/><path d="M4.475 55.335L24.52 61.03l.01-4.694-10.407-2.294-9.648 1.292z" fill="#fad791"/><path d="M14.123 54.042l-9.648 1.293v-30.66l9.648 1.283v28.086z" fill="#d9a741"/><path d="M24.53 23.664l-10.407 2.294-9.648-1.283L24.53 18.97v4.694z" fill="#624a1e"/><path d="M45.47 75.044L35 80V0l10.47 4.956v70.088z" fill="#d9a741"/></symbol></svg>