<svg xmlns="http://www.w3.org/2000/svg" xmlns:xlink="http://www.w3.org/1999/xlink" viewBox="0 0 74.375 85" fill="white" fill-rule="evenodd"><use xlink:href="#A" x="2.188" y="2.5"/><symbol id="A" overflow="visible"><path d="M14.78 25.015l-7.75-1.108v-10.66l10.47 2.75-2.72 9.02z" fill="#759c3e"/><path d="M15.314 26.385L0 27.687V16.57l7.03-3.324 8.283 13.14zm39.916-1.37l7.75-1.108v-10.66l-10.48 2.75 2.73 9.02z" fill="#4b612c"/><path d="M54.686 26.385L70 27.687V16.57l-7.02-3.324-8.293 13.14z" fill="#759c3e"/><path d="M20.2 6.997l-8.016 15.48L0 25.938v9.883L14.123 64.53 35 80l14.503-17.162V14.84L35 0 20.2 6.997z" fill="#4b612c"/><path d="M70 35.82v-9.883l-12.193-3.46L49.8 6.997 35 0v80l20.877-15.47L70 35.82z" fill="#759c3e"/></symbol></svg>