<svg xmlns="http://www.w3.org/2000/svg" xmlns:xlink="http://www.w3.org/1999/xlink" viewBox="0 0 74.375 85" fill="white" fill-rule="evenodd"><use xlink:href="#A" x="2.188" y="2.5"/><symbol id="A" overflow="visible"><g fill="#876929"><path d="M0 25.938L.02 63.44 35 80l34.98-16.56v-9.368l-29.745-3.508.02-21.127L70 25.948V16.57L35 0 0 16.56v9.378z"/><path d="M.02 54.062L35 64.004V80L.02 63.44v-9.378z"/><path d="M4.465 65.55L0 63.43V16.56l4.475-2.11-.01 51.098z"/></g><path d="M40.255 50.564l-35.8 4.762.01-30.66 35.78 4.772v21.127zM70 25.948l-35-9.95V0l35 16.57v9.378zm-.02 28.124L35 64.004V80l34.98-16.56v-9.368z" fill="#d9a741"/><path d="M22.1 48.58L35 50.107v-20.3L22.1 31.36v17.22zM9.125 47.065l8.365.982V31.924l-8.365 1v14.14z" fill="#876929"/><path d="M4.475 24.665L35 15.996l35 9.95-29.745 3.49-35.78-4.772z" fill="#624a1e"/><path d="M4.465 55.326L35 64.004l34.98-9.932-29.724-3.508-35.8 4.762z" fill="#fad791"/><path d="M69.98 45.918L35 50.107v-20.29l34.98 4.218v11.885z" fill="#d9a741"/></symbol></svg>