<svg xmlns="http://www.w3.org/2000/svg" xmlns:xlink="http://www.w3.org/1999/xlink" viewBox="0 0 74.375 85" fill="white" fill-rule="evenodd"><use xlink:href="#A" x="2.188" y="2.5"/><symbol id="A" overflow="visible"><g fill="#4b612c"><path d="M49.8 44.478l11.316 2.858V67.64L49.8 64.8 39.473 52.917l10.327-8.44zM0 63.434l8.884 4.205 12.42-21.415H0v17.2z"/><path d="M35 80l-14.8-7.005V48.74l23.6-2.517L35 80z"/></g><path d="M0 46.224l35 4.4 35-4.4L35 44.4 0 46.224z" fill="#b7ca9d"/><path d="M49.8 26.82L35 42.683 20.2 26.82 35 5.415 49.8 26.82z" fill="#3c4929"/><g fill="#4b612c"><path d="M35 47.444l14.8 1.298 8.38-10.956L49.8 26.82 35 28.78l-9.585 9.005L35 47.444z"/><path d="M8.884 47.337l5.658 10.995 5.658-9.57 10.224-10.976L20.2 26.82 8.884 28.957v18.38zM20.2 7.005L35 0l12.47 15.142L35 24.02l-14.8 2.8V7.005z"/></g><path d="M20.2 48.76L8.884 47.337V67.64L20.2 64.8V48.76zM35 47.444l-14.8 1.298V26.82L35 28.78v18.663zm35 16l-8.884 4.205V47.336L70 46.224v17.2zM35 80l14.8-7.005V48.742L35 50.596V80zm14.8-53.18L35 24.02V0l14.8 7.005V26.82zm11.316 20.517L49.8 48.762V26.82l11.316 2.137v18.38z" fill="#759c3e"/></symbol></svg>