<svg xmlns="http://www.w3.org/2000/svg" xmlns:xlink="http://www.w3.org/1999/xlink" viewBox="0 0 74.375 85" fill="white" fill-rule="evenodd"><use xlink:href="#A" x="2.188" y="2.5"/><symbol id="A" overflow="visible"><path d="M69.774 54.07L35 49.942.225 54.07 35 80 69.774 54.07z" fill="#99bce3"/><path d="M70 25.942L34.775 30.05 0 25.932 35 0l35 25.942z" fill="#19486f"/><path d="M35 0L0 16.556v9.385L35 16V0zm0 64L0 54.068v9.376L35 80V64zm0-11.902L19.83 49.98V30.186L35 28.098l14.3 12-14.3 12z" fill="#205b99"/><path d="M35 0l35 16.556v9.385L35 16V0zm0 64l35-9.932v9.376L35 80V64zm0-11.902l15.17-2.117V30.186L35 28.098v24z" fill="#5294cf"/></symbol></svg>