<svg xmlns="http://www.w3.org/2000/svg" xmlns:xlink="http://www.w3.org/1999/xlink" viewBox="0 0 74.375 85" fill="white" fill-rule="evenodd"><use xlink:href="#A" x="2.188" y="2.5"/><symbol id="A" overflow="visible"><path d="M9.966 35.493l-2.288.176L0 35.376l2.123-10.04 7.843 10.156z" fill="#3c4929"/><path d="M9.966 44.83l-2.288-.176L0 44.947l2.123 10.04L9.966 44.83z" fill="#b7ca9d"/><path d="M2.123 45.14L0 44.946v9.434l2.123.605V45.14z" fill="#4b612c"/><path d="M9.966 54.02l-7.843.966V45.15l7.843-.322v9.2z" fill="#759c3e"/><path d="M24.343 45.6l-6.307-.46-11.028.527 5.905 17.96 11.43-18.03z" fill="#b7ca9d"/><path d="M2.123 35.17L0 35.376v-9.434l2.123-.605v9.834z" fill="#4b612c"/><path d="M9.966 26.303l-7.843-.966v9.824l7.843.332v-9.2z" fill="#759c3e"/><path d="M24.343 34.722l-6.307.45-11.028-.517 5.905-17.932 11.43 18z" fill="#3c4929"/><path d="M7.008 18.624l5.905-1.902v17.366l-5.905.566v-16.03z" fill="#4b612c"/><path d="M24.344 19.073l-11.43-2.35v17.366l11.43.634v-15.65z" fill="#759c3e"/><path d="M7.008 61.56l5.905 2.068V46.234l-5.905-.566V61.56z" fill="#4b612c"/><path d="M24.344 61.395l-11.43 2.234V46.234l11.43-.634v15.795z" fill="#759c3e"/><path d="M20.2 72.995L34.99 80l34.66-40L34.99 0 20.2 7.005v66z" fill="#4b612c"/><path d="M70 63.434L35 80V0l35 16.566v46.868z" fill="#759c3e"/></symbol></svg>