<svg xmlns="http://www.w3.org/2000/svg" viewBox="0 0 71.1 68.18"><defs><style>.a{fill:#9d5025;}.b{fill:#f58536;}</style></defs><title>auto-scaling</title><polygon class="a" points="44.58 53.67 44.58 43.2 40.12 38.75 37.18 35.8 40.12 32.86 44.58 28.4 44.58 17.93 44.58 17.68 49.81 17.68 49.81 14.26 35.55 4.47 21.29 14.26 21.29 17.68 26.52 17.68 26.52 17.93 26.52 28.4 30.98 32.86 33.92 35.8 30.98 38.75 26.52 43.2 26.52 53.67 21.29 50.5 21.29 53.92 35.55 68.18 49.81 53.92 49.81 50.5 44.58 53.67"/><polygon class="a" points="27.26 35.8 27.26 32.38 13 28.36 0 28.36 0 43.24 13 43.24 13 50.06 27.26 35.8"/><polygon class="a" points="71.1 28.36 58.11 28.36 43.84 32.38 43.84 35.8 58.11 50.06 58.11 43.24 71.1 43.24 71.1 28.36"/><polygon class="b" points="44.58 50.25 44.58 39.78 40.12 35.32 37.18 32.38 40.12 29.43 44.58 24.98 44.58 14.51 44.58 14.26 49.81 14.26 35.55 0 21.29 14.26 26.52 14.26 26.52 14.51 26.52 24.98 30.98 29.43 33.92 32.38 30.98 35.32 26.52 39.78 26.52 50.25 26.52 50.5 21.29 50.5 35.55 64.76 49.81 50.5 44.58 50.5 44.58 50.25"/><polygon class="b" points="27.26 32.38 13 18.11 13 24.94 0 24.94 0 39.82 13 39.82 13 46.64 27.26 32.38"/><polygon class="b" points="71.1 24.94 58.11 24.94 58.11 18.11 43.84 32.38 58.11 46.64 58.11 39.82 71.1 39.82 71.1 24.94"/></svg>