<svg xmlns="http://www.w3.org/2000/svg" viewBox="0 0 68.18 82.32"><defs><style>.a{fill:#9d5025;}.b{fill:#f58536;}</style></defs><title>amazon-ec2</title><polygon class="a" points="3.42 15.33 0 17.04 0 65.28 3.42 66.99 17.26 42.41 3.42 15.33"/><polygon class="b" points="11.39 65.12 3.42 66.99 3.42 15.33 11.39 17.15 11.39 65.12"/><polygon class="a" points="7.19 13.44 11.39 11.35 31.34 43.33 11.39 70.97 7.19 68.88 7.19 13.44"/><polygon class="b" points="21.33 68.16 11.39 70.97 11.39 11.35 21.33 14.17 21.33 68.16"/><polygon class="a" points="16.07 9 21.33 6.37 50.76 46.83 21.33 75.95 16.07 73.32 16.07 9"/><polygon class="b" points="34.08 71.29 21.33 75.95 21.33 6.37 34.08 11.04 34.08 71.29"/><polygon class="a" points="27.28 3.4 34.08 0 65.92 43.49 34.08 82.32 27.28 78.92 27.28 3.4"/><polygon class="b" points="68.18 65.27 34.08 82.32 34.08 0 68.18 17.05 68.18 65.27"/></svg>