<svg xmlns="http://www.w3.org/2000/svg" xmlns:xlink="http://www.w3.org/1999/xlink" viewBox="0 0 74.375 85" fill="#fff" fill-rule="evenodd"><use xlink:href="#a" x="2.188" y="2.5"/><symbol id="a" overflow="visible"><path d="M24.457 46.8L8.407 67.26 0 46.84l15.332-.888 9.125.85zm20.923 0l16.215 20.576 8.24-20.517-15.167-.907-9.3.85z" fill="#fbbf93"/><path d="M24.457 33.14L8.406 12.624 0 33.16l15.465.878 8.992-.898zm20.923 0l16.215-20.517L70 33.16l-15.332.888-9.3-.907z" fill="#6b3a19"/><path d="M45.38 33.14L61.595 32V12.624l-16.215 3.98V33.14z" fill="#9d5025"/><path d="M70 33.16L61.594 32V12.624l8.406 4V33.16z" fill="#f58536"/><path d="M45.38 46.8L61.595 48v19.376l-16.215-4.04V46.8z" fill="#9d5025"/><path d="M69.835 46.86L61.594 48v19.376l8.24-3.912V46.86zM24.457 33.14L8.406 32V12.624l16.05 3.98V33.14z" fill="#f58536"/><path d="M0 33.16L8.406 32V12.624l-8.406 4V33.16z" fill="#9d5025"/><path d="M24.457 46.8L8.406 48v19.376l16.05-4.04V46.8z" fill="#f58536"/><path d="M0 46.84L8.406 48v19.376l-8.406-4V46.84z" fill="#9d5025"/><path d="M51.71 49.356L35 47.785l-16.873 1.55L35 80l16.71-30.644z" fill="#fbbf93"/><path d="M51.71 30.644L35 32.215l-16.873-1.55L35 0l16.71 30.644z" fill="#6b3a19"/><path d="M51.71 30.644L35 28.342V0l16.71 7.932v22.712z" fill="#f58536"/><path d="M18.127 30.663L35 28.342V0L18.127 8v22.654z" fill="#9d5025"/><path d="M51.71 49.356L35 51.658V80l16.71-7.932V49.356z" fill="#f58536"/><path d="M18.127 49.337L35 51.66V80l-16.873-8V49.337z" fill="#9d5025"/></symbol></svg>