<svg xmlns="http://www.w3.org/2000/svg" xmlns:xlink="http://www.w3.org/1999/xlink" viewBox="0 0 74.375 85" fill="#fff" fill-rule="evenodd"><use xlink:href="#a" x="2.188" y="2.5"/><symbol id="a" overflow="visible"><path d="M3.51 14.898L0 16.56v46.88l3.51 1.662 14.21-23.887L3.51 14.898z" fill="#9d5025"/><path d="M11.694 63.285L3.51 65.102V14.898l8.183 1.77v46.618z" fill="#f58536"/><path d="M7.382 13.06l4.312-2.03 20.483 31.08-20.483 26.86-4.312-2.03V13.06z" fill="#9d5025"/><path d="M21.9 66.24l-10.205 2.73V11.03L21.9 13.77v52.47z" fill="#f58536"/><path d="M16.5 8.746L21.9 6.2l30.215 39.3L21.9 73.81l-5.4-2.556V8.746z" fill="#9d5025"/><path d="M34.99 69.28l-13.1 4.53V6.2l13.1 4.538V69.28z" fill="#f58536"/><path d="M28.008 3.304L35 0l32.7 42.264L35 80l-6.982-3.304V3.304z" fill="#9d5025"/><path d="M70 63.43L35 80V0l35 16.57v46.86z" fill="#f58536"/></symbol></svg>