<svg xmlns="http://www.w3.org/2000/svg" xmlns:xlink="http://www.w3.org/1999/xlink" viewBox="0 0 74.375 85" fill="#fff" fill-rule="evenodd"><use xlink:href="#a" x="2.188" y="2.5"/><symbol id="a" overflow="visible"><path d="M34.995 35.67L60.17 18.937 70 35.318l-23.794.927-11.212-.576zm0 0L9.82 21.903 0 35.318l23.783.927 11.21-.576z" fill="#5e1f18"/><g fill="#f2b0a9"><path d="M34.995 44.332L9.82 62.917 0 44.683l23.783-.927 11.21.576z"/><path d="M34.995 44.332L60.17 62.917 70 44.683l-23.794-.927-11.212.576z"/></g><path d="M60.17 34.38l9.83.937v-18.75l-9.83 2.37V34.38z" fill="#e05243"/><path d="M24.546 19.95l35.624-.322v14.75l-25.175 1.288-10.45-15.717z" fill="#8c3123"/><path d="M60.17 45.62l9.83-.937v18.75l-9.83-.84V45.62z" fill="#e05243"/><path d="M26.112 59.766l34.057-2.878V45.62l-25.175-1.288-8.883 15.434z" fill="#8c3123"/><path d="M34.995 19.63l-29.38.185L9.82 34.38l25.175 1.288V19.63z" fill="#e05243"/><path d="M9.82 34.38L0 35.317v-18.75l9.82.615v17.2zm0 11.24L0 44.683v18.75l9.82-.976V45.62z" fill="#8c3123"/><g fill="#e05243"><path d="M34.995 61.113L9.82 56.888V45.62l25.175-1.288v16.78z"/><path d="M49.783 30.156l-14.787-2.088-13.973 12.44 13.973 11.56 14.787-2.117V30.156z"/></g><path d="M20.208 30.156l14.787-2.088v24L20.208 49.95V30.156z" fill="#8c3123"/><path d="M60.17 23.112l-25.175 3.873L9.82 23.112 34.995 0 60.17 23.112z" fill="#5e1f18"/><path d="M60.17 56.888l-25.175-3.873L9.82 56.888 34.995 80 60.17 56.888z" fill="#f2b0a9"/><path d="M70 54.06L34.995 64v16L70 63.435V54.06z" fill="#e05243"/><path d="M0 54.06L34.995 64v16L0 63.435V54.06z" fill="#8c3123"/><path d="M70 25.942L34.995 16V0L70 16.566v9.376z" fill="#e05243"/><path d="M0 25.942L34.995 16V0L0 16.566v9.376z" fill="#8c3123"/></symbol></svg>