<svg xmlns="http://www.w3.org/2000/svg" xmlns:xlink="http://www.w3.org/1999/xlink" viewBox="0 0 74.375 85" fill="#fff" fill-rule="evenodd"><use xlink:href="#a" x="2.188" y="2.5"/><symbol id="a" overflow="visible"><g fill="#4b612c"><path d="M70 59.6V40.04H48.796V65.2l11.42 2.85L70 59.6z"/><path d="M35 56.312l25.03 4.83V11.863L35 18.312 10.597 33.97 35 56.312z"/></g><g fill="#759c3e"><path d="M70 40.04v23.366l-9.784 4.644 9.784-28zM0 59.6V40.04h21.204V65.2l-11.42 2.85L0 59.6z"/><path d="M35 56.312L9.97 61.14V11.873L35 18.312v38z"/></g><path d="M35 40.04l12.5-29.66L35 0 16.543 8.75 35 40.04zm-35 0v23.366l9.784 4.644L0 40.04z" fill="#4b612c"/><path d="M35 40.04V0l18.457 8.75L35 40.04z" fill="#759c3e"/><path d="M0 26.097v-9.503l9.97-4.722L35 56.312l14.97 9.942L35 80l-18.518-8.78L0 26.097z" fill="#4b612c"/><path d="M70 26.097v-9.502l-9.97-4.732L35 56.312V80l18.53-8.78L70 26.097z" fill="#759c3e"/></symbol></svg>