<svg xmlns="http://www.w3.org/2000/svg" xmlns:xlink="http://www.w3.org/1999/xlink" viewBox="0 0 95.625 53.125" fill="#fff" fill-rule="evenodd"><use xlink:href="#a" x="2.813" y="1.563"/><symbol id="a" overflow="visible"><g fill="#4b612c"><use xlink:href="#C"/><path d="M13.817 22.572h9.367v4.068h-9.367zM0 4.068V50h90V4.068zm77.217 30.07H42.583c-3.57 7.482-11.94 11.523-20.138 9.722S8.42 34.9 8.42 26.632s5.83-15.426 14.027-17.227 16.567 2.24 20.138 9.722h10.6l1.883 3.28 7.017-.64 2.7 2.723 2.466.525 6.4-3.773 8.017 5.955z"/></g><g fill="#759c3e"><use xlink:href="#C" y="-4.067"/><path d="M0 0v45.932h90V0zm77.217 30.07H42.583c-3.57 7.482-11.94 11.523-20.138 9.722S8.42 30.83 8.42 22.564 14.25 7.138 22.447 5.337s16.567 2.24 20.138 9.722h10.6l1.883 3.28 7.017-.64 2.7 2.723 2.466.525 6.4-3.773 8.017 5.955z"/></g></symbol><defs><path id="C" d="M13.817 26.64c0-2.554 2.09-4.6 4.683-4.6s4.683 2.056 4.683 4.6-2.09 4.6-4.683 4.6-4.683-2.056-4.683-4.6z"/></defs></svg>