<svg xmlns="http://www.w3.org/2000/svg" xmlns:xlink="http://www.w3.org/1999/xlink" viewBox="0 0 74.375 85" fill="#fff" fill-rule="evenodd"><use xlink:href="#a" x="2.188" y="2.5"/><symbol id="a" overflow="visible"><path d="M70 25.942L34.995 30.06 0 25.942 34.995 0 70 25.942z" fill="#6b3a19"/><path d="M70 54.058L34.995 49.94 0 54.058 34.995 80 70 54.058z" fill="#fbbf93"/><path d="M70 25.942L34.995 16V0L70 16.566v9.376zM49.782 46.605L70 44.683v-9.366l-20.218-1.912v13.2zM70 54.06L34.995 64v16L70 63.435V54.06z" fill="#f58536"/><path d="M0 25.942L34.995 16V0L0 16.566v9.376zm16.364 26.526L34.995 56l18.63-16-18.63-16-18.63 3.532V52.47z" fill="#9d5025"/><path d="M53.626 52.468L34.995 56V24l18.63 3.532v24.937z" fill="#f58536"/><path d="M20.208 46.605L0 44.683v-9.366l20.208-1.912v13.2zM0 54.06L34.995 64v16L0 63.435V54.06z" fill="#9d5025"/></symbol></svg>