<svg xmlns="http://www.w3.org/2000/svg" xmlns:xlink="http://www.w3.org/1999/xlink" viewBox="0 0 81 33" fill="#fff" fill-rule="evenodd"><use xlink:href="#a" x=".5" y=".5"/><symbol id="a" overflow="visible"><path fill="#34bbc9" d="M17.986 1.568l-15.5 26.75c-1 1.75-.25 2.75.5 3 .5.25 1.25 0 2.5-1l13.25-11.75c1.25-1 1.75.75 2.5 2l5.5 10c1.5 1.75 3 .5 3.75-.75l3.25-5.25 2.5 4.5c.75 1.25 2 2.25 3.5 2.25 2 0 3.25-.5 4.25-2.25l8.5-15 22.25 16.75c1.75 1 2.5.25 3-.5s.25-1.75-.5-3l-14.25-25c-.75-1-1.375-1.75-2.75-1.75-1 0-1.75.5-2 1l-6 10.5-3.5-2.5c-1.75-1-2.5-1.5-4-1.25-2 .25-3.75 1.5-4.75 3.25l-6.25 10-11.25-19.25c-.75-1-1.125-1.75-2.25-1.75s-1.75.25-2.25 1zm.75 1.25l-15 26c-.5.75-.25 1.25.5.75l14-12.25c1-.75 2.5-.75 3.25.75l6 11c.75 1.5 1.25.5 2-.5l3.5-5.25-11.5-20c-1-1.75-2-1.75-2.75-.5zm24.5 24.75l8.25-14.5-4.25-2.75c-1.5-1-4.5-.5-6 1.75l-6.75 11.25 2.75 4.75c1.75 3 4.75 1.75 6-.5zm19.5-23l13.25 23.5c.5 1 1 3-1.5 1l-21.25-16.25 5.5-9.5c1.5-2.75 2.5-1 4 1.25z"/></symbol></svg>