<svg xmlns="http://www.w3.org/2000/svg" xmlns:xlink="http://www.w3.org/1999/xlink" viewBox="0 0 85 85" fill="#fff" fill-rule="evenodd"><use xlink:href="#a" x="2.5" y="2.5"/><symbol id="a" overflow="visible"><path d="M0 41.58C0 20.293 17.84 3.157 40 3.157S80 20.293 80 41.58 62.16 80 40 80 0 62.864 0 41.58z" fill="#9d5025"/><path d="M0 38.422C0 17.136 17.84 0 40 0s40 17.136 40 38.422-17.84 38.422-40 38.422S0 59.707 0 38.422z" fill="#f58536"/><path d="M40 66.97l-.63-.215c-4.734-1.9-8.916-4.877-12.185-8.674a42.348 42.348 0 01-8.216-13.56 62.234 62.234 0 01-3.667-22.046v-1.818h1.893c1.71 0 4.9-.543 6.152-1.755a9.049 9.049 0 002.195-5.013l.092-1.174 1.144-.417A43.566 43.566 0 0140 9.874c4.5.154 8.97.967 13.224 2.412l1.17.417.092 1.187a8.937 8.937 0 002.143 4.962c1.183 1.136 4.666 1.616 6.165 1.68l1.853.076v1.78a62.53 62.53 0 01-3.615 22.096 42.408 42.408 0 01-8.163 13.586c-3.267 3.803-7.45 6.784-12.185 8.687zM19.244 24.192c.29 12.98 3.944 23.775 10.7 31.288A29.976 29.976 0 0040 63.056a29.917 29.917 0 0010.056-7.576c6.73-7.576 10.41-18.36 10.7-31.39-2.024-.265-5.127-.934-6.862-2.588a11.78 11.78 0 01-3.063-6.048 40.783 40.783 0 00-10.83-1.87 38.88 38.88 0 00-10.818 1.831 11.77 11.77 0 01-3.036 6.086 12.614 12.614 0 01-6.9 2.69z"/><path d="M51.922 36.654c-2.366 2.273-9.583 7.11-12.33 9.76v-7.576H7.742v-4.533h31.784v-7.462c2.616 2.513 9.832 7.35 12.396 9.81z"/></symbol></svg>