<svg xmlns="http://www.w3.org/2000/svg" xmlns:xlink="http://www.w3.org/1999/xlink" viewBox="0 0 85 85" fill="#fff" fill-rule="evenodd"><use xlink:href="#a" x="2.5" y="2.5"/><symbol id="a" overflow="visible"><path d="M0 41.58C0 20.293 17.84 3.157 40 3.157S80 20.293 80 41.58 62.16 80 40 80 0 62.864 0 41.58z" fill="#9d5025"/><path d="M0 38.422C0 17.136 17.84 0 40 0s40 17.136 40 38.422-17.84 38.422-40 38.422S0 59.707 0 38.422z" fill="#f58536"/><path d="M50.832 20.58h4.22v35.67h-4.22zm11.856 9.03l11.042 8.636-11.042 9V29.6z"/><path d="M23.66 36.402l2.406 1.87-2.668 2.172h41.157v-4.04H23.66zm-.262-13.788H55.05V18.56h-31.4l2.406 1.88-2.668 2.172zM26.066 56.1l-2.668 2.172H55.05V54.23h-31.4l2.406 1.88zM14.604 31.364l8.833 6.906-8.833 7.2V31.364zm0-17.83l8.833 6.907-8.833 7.197V13.535zm0 35.67l8.833 6.907-8.833 7.197V49.205z"/></symbol></svg>