<svg xmlns="http://www.w3.org/2000/svg" xmlns:xlink="http://www.w3.org/1999/xlink" viewBox="0 0 74.375 85" fill="#fff" fill-rule="evenodd"><style>.B{fill:#d9a741}.C{fill:#876929}.D{fill:#624a1e}.E{fill:#fad791}</style><use xlink:href="#A" x="2.188" y="2.5"/><symbol id="A" overflow="visible"><path d="M.05 28.416l7.355.73 6.145-1.176L5.847 13.8.05 28.416zm69.898 0l-7.355.73-6.145-1.176 7.704-14.16 5.796 14.606z" class="D"/><path d="M.072 46.978L35 51.954l34.928-4.976v-13.78L35 28.426.072 33.198v13.78z" class="C"/><path d="M70 51.574l-7.406-.72-6.145 1.176 7.704 14.16L70 51.574zm-70 0l7.406-.72 6.145 1.176L5.847 66.2 0 51.574z" class="E"/><path d="M64.153 13.8l-7.704 1.778v12.38l7.704-.904V13.8z" class="C"/><path d="M60.758 26.268l-8.022.99-8.637-1.642 8.33-17.366 8.33 18.018z" class="D"/><path d="M44.1 25.617l8.33-1.293V8.25l-8.33 2.595v14.772z" class="C"/><path d="M5.847 13.8l7.704 1.778v12.38l-7.704-.904V13.8zM69.95 28.416l-5.796-1.35V13.8l5.796 2.74v11.866z" class="B"/><path d="M9.242 26.268l8.022.99 8.637-1.642L17.57 8.25 9.24 26.268z" class="D"/><path d="M25.9 25.617l-8.33-1.293V8.25l8.33 2.595v14.772zm44.028 21.36L35 51.954V28.426l34.928 4.772v13.78zm-9.17-20.7l-8.33-1.944V8.25l8.33 3.946v14.072z" class="B"/><path d="M47.823 23.246L35 25.452l-12.822-2.206L35 0l12.822 23.246z" class="D"/><path d="M47.822 23.246L35 20.253V0l12.822 6.074v17.172z" class="B"/><path d="M.05 28.416l5.796-1.35V13.8L.05 16.55v11.866zm9.192-2.148l8.33-1.944V8.25l-8.33 3.946v14.072zm12.936-3.022L35 20.253V0L22.178 6.074v17.172zM64.153 66.2l-7.704-1.778V52.03l7.704.904V66.2z" class="C"/><path d="M69.95 51.584l-5.796 1.35V66.2l5.796-2.74V51.584z" class="B"/><path d="M60.758 53.732l-8.022-.99-8.637 1.642 8.33 17.366 8.33-18.017z" class="E"/><path d="M60.757 53.732l-8.33 1.944V71.75l8.33-3.946V53.732z" class="B"/><path d="M44.1 54.383l8.33 1.292V71.75l-8.33-2.595V54.383z" class="C"/><path d="M5.847 66.2l7.704-1.778V52.03l-7.704.904V66.2z" class="B"/><path d="M9.242 53.732l8.022-.99 8.637 1.642-8.33 17.366-8.33-18.017z" class="E"/><path d="M25.9 54.383l-8.33 1.273V71.75l8.33-2.595V54.383z" class="B"/><path d="M47.823 56.754L35 54.548l-12.822 2.206L35 80l12.822-23.246z" class="E"/><path d="M47.822 56.754L35 59.747V80l12.822-6.074V56.754z" class="B"/><path d="M.05 51.584l5.796 1.35V66.2L.05 63.45V51.584zm9.192 2.148l8.33 1.944V71.75l-8.33-3.946V53.732zm12.936 3.022L35 59.747V80l-12.822-6.074V56.754z" class="C"/></symbol></svg>