<svg xmlns="http://www.w3.org/2000/svg" xmlns:xlink="http://www.w3.org/1999/xlink" viewBox="0 0 69.063 85" fill="#fff" fill-rule="evenodd"><use xlink:href="#a" x="2.031" y="2.5"/><symbol id="a" overflow="visible"><path d="M16.83 39.98l-3.743 22.85-9.812 2.283-3.255-1.66V39.98h16.8z" fill="#9d5025"/><path d="M65 31.932l-32.5 2.35L0 31.932 32.5 0 65 31.932z" fill="#6b3b19"/><path d="M38.97 39.98H3.274v25.132L38.97 56.79v-16.8z" fill="#f58534"/><path d="M21.127 39.98l1.168 25.698-11.43 3.298-3.992-2.03V39.98h14.254z" fill="#9d5025"/><path d="M49.664 39.98h-38.8v28.995l38.8-11.22V39.98z" fill="#f58534"/><path d="M29.255 39.98v30.507l-8.912 3.317-5.016-2.556V39.98h13.93z" fill="#9d5025"/><path d="M58.117 39.98H20.342v33.824l37.775-14.078V39.98z" fill="#f58534"/><path d="M26.02 76.703V39.98h24.6l11.803 24.77L32.5 80l-6.47-3.297z" fill="#9d5025"/><path d="M32.5 80V39.98H65v23.464L32.5 80zM65 31.932l-32.5-5.697V0L65 16.556v15.376z" fill="#f58534"/><path d="M0 31.932l32.5-5.697V0L0 16.556v15.376z" fill="#9d5025"/></symbol></svg>