<svg xmlns="http://www.w3.org/2000/svg" xmlns:xlink="http://www.w3.org/1999/xlink" viewBox="0 0 81 82" fill="#fff" fill-rule="evenodd"><use xlink:href="#a" x=".5" y=".5"/><symbol id="a" overflow="visible"><path d="M0 42C0 20.948 17.84 4 40 4s40 16.948 40 38-17.84 38-40 38S0 63.052 0 42z" fill="#9d5025"/><path d="M0 38C0 16.948 17.84 0 40 0s40 16.948 40 38-17.84 38-40 38S0 59.052 0 38z" fill="#f58536"/><path d="M46.005 37.884v-4.79c-.367-3.194-2.926-5.594-5.96-5.594s-5.593 2.4-5.96 5.594v4.79H31V48.5h18V37.884zm-2.944 0h-6.108v-4.79c.01-.83.346-1.62.93-2.176s1.36-.827 2.14-.75c1.604-.076 2.97 1.226 3.07 2.925z"/><path d="M19 17h6v42h-6zm36 0h6v42h-6z" fill="#fbbf93"/><path d="M17.5 38L11 33v10zm45 0l6.5-5v10z"/></symbol></svg>