<svg xmlns="http://www.w3.org/2000/svg" xmlns:xlink="http://www.w3.org/1999/xlink" viewBox="0 0 74.375 85" fill="#fff" fill-rule="evenodd"><use xlink:href="#a" x="2.188" y="2.5"/><symbol id="a" overflow="visible"><path d="M46.154 45.6l-11.113-.644L0 47.073l9.885 21.102L46.154 45.6z" fill="#fbbf93"/><path d="M9.75 11.912L0 16.566V40h9.75l13.796-11.824L9.75 11.912z" fill="#9d5025"/><path d="M46.154 45.6l-36.27 2.85v19.727l36.27-9.337V45.6zM27.426 40H9.75V11.912l17.675 4.527V40z" fill="#f58536"/><path d="M52.83 39.98l12.692.02V16.966l-12.692 2V39.98z" fill="#9d5025"/><path d="M27.984 21.278l11.423-10.84 26.116 14.234L52.83 26.36l-24.847-5.083z" fill="#6b3a19"/><path d="M16.303 40H34.96l9.782-18.498L34.96 0 16.303 8.82V40z" fill="#9d5025"/><path d="M34.96 0v40h10.484V18.976l20.08 5.698V40H70V16.566L34.96 0z" fill="#f58536"/><path d="M0 47.073l9.885 1.376v19.727L0 63.512v-16.44z" fill="#9d5025"/><path d="M70 46.985L53.15 46l-36.847 3.376L34.96 80 70 46.985z" fill="#fbbf93"/><path d="M70 46.985L34.96 51.95V80L70 63.434v-16.45z" fill="#f58536"/><path d="M16.303 49.376l18.656 2.576V80l-18.656-8.8V49.376z" fill="#9d5025"/></symbol></svg>