<svg xmlns="http://www.w3.org/2000/svg" xmlns:xlink="http://www.w3.org/1999/xlink" viewBox="0 0 85 85" fill="#fff" fill-rule="evenodd"><use xlink:href="#a" x="2.5" y="2.5"/><symbol id="a" overflow="visible"><path d="M66.293 79.987L22.78 66.363 46.988 43l19.305 28.16v8.826z" fill="#648339"/><path d="M13.707 79.987l26.187-8.192L40 64.73 12.033 52.016l1.674 27.97z" fill="#3c4929"/><path d="M22.782 13.865L66.282 0l-4.184 27.743-59.882-3.04 20.566-10.84z" fill="#b7ca9d"/><path d="M80 56.322L66.282 80 44.526 65.83 40 40l4.526-25.87L66.282 0 80 23.704v32.618z" fill="#759c3e"/><path d="M44.526 65.83l-42.3-10.345V24.704l42.3-10.573v51.7z" fill="#4b612c"/><path d="M40 8.382L13.718 0l4.184 27.743L40 15.245V8.382z" fill="#648339"/><path d="M0 56.322L13.718 80l21.756-14.17L38.598 40l-3.123-25.87L13.718 0 0 23.704v32.618z" fill="#4b612c"/><path d="M40 64.73l-4.526 1.102v-51.7L40 15.245V64.73z" fill="#759c3e"/></symbol></svg>