<svg xmlns="http://www.w3.org/2000/svg" xmlns:xlink="http://www.w3.org/1999/xlink" viewBox="0 0 74.375 85" fill="#fff" fill-rule="evenodd"><use xlink:href="#a" x="2.188" y="2.5"/><symbol id="a" overflow="visible"><path d="M0 44.684l5.327-.204 4.71.38-5.563 19.145L0 44.684z" fill="#b7ca9d"/><path d="M20.2 59.806L35 64.004 47 34.47 35 0 20.2 6.997v52.808z" fill="#4b612c"/><path d="M49.8 59.806L35 64.004V0l14.8 6.997v52.808z" fill="#759c3e"/><path d="M59.962 54.17l5.563.72v-9.776l-5.563-.253v9.3z" fill="#4b612c"/><path d="M10.038 54.17l-5.563.72v-9.776l5.563-.253v9.3z" fill="#759c3e"/><path d="M34.405 53.77l-24.367-4.053-5.563.505L33.4 69.7l1.006-15.928z" fill="#b7ca9d"/><path d="M65.525 45.112L70 44.684V63.43l-4.475-2.993V45.112z" fill="#759c3e"/><path d="M70 44.684l-5.327-.204-4.71.38 5.563.253L70 44.684z" fill="#b7ca9d"/><g fill="#4b612c"><path d="M0 49.378l35 6.628V80L0 63.43V49.378z"/><path d="M4.475 45.112L0 44.684V63.43l4.475-1.623V45.112z"/></g><g fill="#b7ca9d"><path d="M35 53.897v21.7l30.525-25.374-5.553-.496L35 53.897z"/><path d="M45.47 47.007L35 46.24l-10.47.768L35 80l10.47-32.993z"/></g><g fill="#759c3e"><path d="M70 49.378l-35 6.628V80l35-16.57V49.378z"/><path d="M45.47 74.276L35 79.232V47.998l10.47-.99v27.27z"/></g><path d="M24.53 70.67L35 80V47.998l-10.47-.99V70.67z" fill="#4b612c"/></symbol></svg>