<svg xmlns="http://www.w3.org/2000/svg" viewBox="0 0 71.1 68.18"><defs><style>.a{fill:#9d5025}.b{fill:#f58536}</style></defs><path class="a" d="M44.58 53.67V43.2l-4.46-4.45-2.94-2.95 2.94-2.94 4.46-4.46V17.68h5.23v-3.42L35.55 4.47l-14.26 9.79v3.42h5.23V28.4l4.46 4.46 2.94 2.94-2.94 2.95-4.46 4.45v10.47l-5.23-3.17v3.42l14.26 14.26 14.26-14.26V50.5l-5.23 3.17z"/><path class="a" d="M27.26 35.8v-3.42L13 28.36H0v14.88h13v6.82L27.26 35.8zm43.84-7.44H58.11l-14.27 4.02v3.42l14.27 14.26v-6.82H71.1V28.36z"/><path class="b" d="M44.58 50.25V39.78l-4.46-4.46-2.94-2.94 2.94-2.95 4.46-4.45V14.26h5.23L35.55 0 21.29 14.26h5.23v10.72l4.46 4.45 2.94 2.95-2.94 2.94-4.46 4.46V50.5h-5.23l14.26 14.26L49.81 50.5h-5.23v-.25z"/><path class="b" d="M27.26 32.38L13 18.11v6.83H0v14.88h13v6.82l14.26-14.26zm43.84-7.44H58.11v-6.83L43.84 32.38l14.27 14.26v-6.82H71.1V24.94z"/></svg>