<svg xmlns="http://www.w3.org/2000/svg" height="300" width="300" viewBox="0 0 300 300"><g transform="translate(0 -752.36)"><g transform="translate(0 -15)"><circle stroke-width="3" stroke="#000" cy="814.86" cx="150" r="36" fill="none"/><circle cy="828.55" cx="156.75" r="3.75" fill="#0f9640"/><g fill="#164bc5"><circle cy="824.33" cx="128.02" r="3.75"/><circle cy="816.11" cx="143.25" r="3.75"/><circle cy="798.16" cx="143.25" r="3.75"/><circle cy="806.21" cx="128.3" r="3.75"/><circle cy="836" cx="143.25" r="3.75"/></g><g fill="#0f9640"><circle cy="806.77" cx="156.75" r="3.75"/><circle cy="801.72" cx="172.1" r="3.75"/><circle cy="791.82" cx="156.75" r="3.75"/><circle cy="821.9" cx="171.73" r="3.75"/></g></g><path d="M130 830.36l-60 114m100-114l60 114" stroke="#000" stroke-width="2" fill="none"/><text font-size="40" y="867.362" x="36.822" font-family="sans-serif" word-spacing="0" letter-spacing="0"><tspan font-size="22.5" y="867.362" x="36.822">x &lt; 2</tspan></text><text font-size="40" y="867.362" x="208.28" font-family="sans-serif" word-spacing="0" letter-spacing="0"><tspan font-size="22.5" y="867.362" x="208.28">x ≥ 2</tspan></text><circle stroke-width="3" stroke="#000" cy="974.86" cx="50" r="36" fill="none"/><g fill="#164bc5"><circle cy="984.33" cx="28.017" r="3.75"/><circle cy="976.11" cx="43.25" r="3.75"/><circle cy="966.21" cx="28.297" r="3.75"/><circle cy="996" cx="43.25" r="3.75"/></g><circle stroke-width="3" stroke="#000" cy="974.86" cx="250" r="36" fill="none"/><g fill="#0f9640"><circle cy="988.55" cx="256.75" r="3.75"/><circle cy="966.77" cx="256.75" r="3.75"/><circle cy="961.72" cx="272.1" r="3.75"/><circle cy="951.82" cx="256.75" r="3.75"/><circle cy="981.9" cx="271.73" r="3.75"/></g><text font-size="40" y="1040.604" x="24.6" font-family="sans-serif" fill="#164bc5" word-spacing="0" letter-spacing="0"><tspan font-size="22.5" y="1040.604" x="24.6">Blue</tspan></text><text font-size="40" y="1040.604" x="216.255" font-family="sans-serif" fill="#0f9640" word-spacing="0" letter-spacing="0"><tspan font-size="22.5" y="1040.604" x="216.255">Green</tspan></text><circle cy="958.41" cx="43.25" r="3.75" fill="#164bc5"/></g></svg>