<svg xmlns="http://www.w3.org/2000/svg" viewBox="0 0 68.18 82.32"><defs><style>.a{fill:#9d5025}.b{fill:#f58536}</style></defs><path class="a" d="M3.42 15.33L0 17.04v48.24l3.42 1.71 13.84-24.58L3.42 15.33z"/><path class="b" d="M11.39 65.12l-7.97 1.87V15.33l7.97 1.82v47.97z"/><path class="a" d="M7.19 13.44l4.2-2.09 19.95 31.98-19.95 27.64-4.2-2.09V13.44z"/><path class="b" d="M21.33 68.16l-9.94 2.81V11.35l9.94 2.82v53.99z"/><path class="a" d="M16.07 9l5.26-2.63 29.43 40.46-29.43 29.12-5.26-2.63V9z"/><path class="b" d="M34.08 71.29l-12.75 4.66V6.37l12.75 4.67v60.25z"/><path class="a" d="M27.28 3.4l6.8-3.4 31.84 43.49-31.84 38.83-6.8-3.4V3.4z"/><path class="b" d="M68.18 65.27l-34.1 17.05V0l34.1 17.05v48.22z"/></svg>