<svg height="665.749" viewBox="0 0 499.312 499.312" width="665.749" xmlns="http://www.w3.org/2000/svg"><path d="M280 454.055l59.64-59.64-11.312-11.31L280 431.434l-37.09-37.09-11.308 11.312zm58.117-80.742l10.969-10.965 11.312 11.312-10.968 10.969zm10.192-164.938l14.03-14.027 11.313 11.312-14.027 14.028zm-73.969 73.969l64-64 11.312 11.312-64 64zm0 0"/><path d="M499.313 280L368 148.687l-24 24-32-32L268.687 184l32 32L240 276.688V48h-32V0h-64v48H96V0H32v48H0v400h228.688L280 499.313zm-22.625 0L280 476.688 171.312 368 368 171.312zM184 332.688L163.312 312 184 291.312 204.688 312zM291.313 184L312 163.312 332.688 184 312 204.688zM216 300.688l-32-32L148.687 304H16V192h208v100.688zM160 16h32v32h-32zM48 16h32v32H48zm176 48v112H16V64zM16 432V320h132.688l24 24-24 24 64 64zm0 0"/><path d="M32 80h16v16H32zm0 32h16v48H32zm0 96h16v16H32zm0 32h16v48H32zm0 96h16v16H32zm0 32h16v48H32zm0 0"/></svg>