<svg height="422.164" viewBox="1 1 316.623 316.623" width="422.164" xmlns="http://www.w3.org/2000/svg"><path d="M65.586 109.309L136.636 0l71.055 109.309zm0 0" fill="#e9686a"/><path d="M0 163.965h153.035V317H0zm0 0" fill="#5f79ba"/><path d="M207.691 65.586v218.621c0 18.113 24.47 32.793 54.653 32.793C292.53 317 317 302.32 317 284.207V65.586zm0 0" fill="#fdbd40"/><path d="M153.035 163.965H0l54.656-54.656h153.035zm0 0" fill="#87cee9"/><path d="M207.691 262.344L153.035 317V163.965l54.656-54.656zm0 0" fill="#cfdfe8"/><path d="M262.344 300.602c-21.328 0-35.77-8.723-38-15.024a5.383 5.383 0 0 1-.317-1.824l.016-65.137a5.467 5.467 0 0 1 5.465-5.46 5.462 5.462 0 0 1 5.465 5.46v.004l-.016 63.36a43.243 43.243 0 0 0 27.387 7.69c17.152 0 26.539-6.487 27.949-7.995a5.463 5.463 0 0 1 9.93 4.523c-2.297 5.887-17.121 14.403-37.88 14.403zm0 0" fill="#f4f4e6"/><path d="M317 65.586c0-18.11-24.469-32.793-54.656-32.793-30.184 0-54.653 14.684-54.653 32.793 0 18.11 24.47 32.793 54.653 32.793C292.53 98.379 317 83.695 317 65.586zm0 0" fill="#fcf05a"/><path d="M65.586 109.309L136.636 0v109.309zm0 0" fill="#f98c96"/><path d="M54.656 300.602H21.863a5.457 5.457 0 0 1-5.465-5.461v-43.727a5.466 5.466 0 0 1 10.93 0v38.258h27.328a5.466 5.466 0 0 1 0 10.93zm32.794 0H76.515a5.466 5.466 0 0 1 0-10.93h10.933a5.466 5.466 0 0 1 0 10.93zm142.1-98.379a5.46 5.46 0 0 1-5.464-5.461v-10.934a5.466 5.466 0 0 1 10.93 0v10.93a5.457 5.457 0 0 1-5.461 5.465h-.004zm0 0" fill="#f4f4e6"/></svg>