<svg xmlns="http://www.w3.org/2000/svg" viewBox="0 0 512 512"><path fill="#cee8fa" d="M14.498 159.553h337.953v337.953H14.498z"/><path d="M497.504 145.467c-8.005 0-14.497 6.49-14.497 14.497v177.982H366.94V165.562L506.176 26.326c.261-.261.496-.535.732-.81 3.113-2.659 5.091-6.605 5.091-11.019C511.999 6.49 505.508 0 497.502 0H159.558c-5.468 0-10.226 3.031-12.696 7.502L71.787 82.577c-5.661 5.661-5.661 14.841 0 20.503 2.831 2.831 6.541 4.246 10.251 4.246s7.42-1.415 10.251-4.246l52.772-52.772v94.752H14.498c-8.005 0-14.497 6.49-14.497 14.497v337.945C.001 505.51 6.492 512 14.498 512h337.945c5.47 0 10.228-3.031 12.696-7.504l82-82c5.661-5.661 5.661-14.841 0-20.502-5.663-5.661-14.839-5.661-20.503 0l-59.698 59.698V366.94h130.564c8.005 0 14.497-6.49 14.497-14.497v-192.48c.002-8.006-6.49-14.496-14.495-14.496zM174.055 28.994h288.45L346.438 145.061H174.055V28.994zM28.995 174.055h308.952v308.952H28.995V174.055z" fill="#2d527c"/></svg>