<svg xmlns="http://www.w3.org/2000/svg" viewBox="0 0 480 480"><path d="M140 430c0 5.522-4.478 10-10 10H70c-16.542 0-30-13.458-30-30v-40c0-5.522 4.478-10 10-10s10 4.478 10 10v40c0 5.514 4.486 10 10 10h60c5.522 0 10 4.478 10 10zm60-272c-5.522 0-10 4.478-10 10v2c0 5.522 4.478 10 10 10s10-4.478 10-10v-2c0-5.522-4.478-10-10-10zm-50-98h30c5.514 0 10 4.486 10 10v50c0 5.522 4.478 10 10 10s10-4.478 10-10V70c0-16.542-13.458-30-30-30h-30c-5.522 0-10 4.478-10 10s4.478 10 10 10zm280 290c-5.522 0-10 4.478-10 10v50c0 5.514-4.486 10-10 10h-30c-5.522 0-10 4.478-10 10s4.478 10 10 10h30c16.542 0 30-13.458 30-30v-50c0-5.522-4.478-10-10-10zm-250 70h-2c-5.522 0-10 4.478-10 10s4.478 10 10 10h2c5.522 0 10-4.478 10-10s-4.478-10-10-10zm300-150v170c0 22.056-17.944 40-40 40H40c-22.056 0-40-17.944-40-40V160.625c0-2.761 1.141-5.398 3.153-7.288s4.718-2.853 7.471-2.692l30.078 1.88c7.679.481 14.996-2.158 20.603-7.425C66.912 139.831 70 132.693 70 125c0-7.694-3.088-14.832-8.695-20.101s-12.926-7.912-20.603-7.424l-30.078 1.88a10.035 10.035 0 0 1-7.471-2.692A9.998 9.998 0 0 1 0 89.375V40C0 17.944 17.944 0 40 0h170c22.056 0 40 17.944 40 40v190h58.73l-1.216-19.454c-.816-13.055 3.853-26.011 12.809-35.544C329.279 165.468 341.919 160 355 160s25.721 5.468 34.677 15.002c8.956 9.533 13.625 22.489 12.809 35.544L401.27 230H440c22.056 0 40 17.944 40 40zM20 230h69.375a9.998 9.998 0 0 1 9.98 10.624l-1.88 30.078c-.48 7.679 2.156 14.995 7.424 20.603C110.168 296.912 117.306 300 125 300s14.832-3.088 20.101-8.695c5.268-5.607 7.904-12.924 7.424-20.603l-1.88-30.078a10.002 10.002 0 0 1 9.98-10.624H230V40c0-11.028-8.972-20-20-20H40c-11.028 0-20 8.972-20 20v38.73l19.454-1.216c13.053-.811 26.01 3.853 35.544 12.809S90 111.919 90 125s-5.468 25.72-15.001 34.676c-9.533 8.955-22.483 13.623-35.545 12.81L20 171.27V230zm220.624 150.645l30.078 1.88c7.679.487 14.996-2.155 20.603-7.424C296.912 369.832 300 362.694 300 355s-3.088-14.832-8.695-20.101c-5.607-5.268-12.929-7.909-20.603-7.424l-30.078 1.88a10.01 10.01 0 0 1-7.471-2.692 9.994 9.994 0 0 1-3.153-7.288V250h-58.73l1.216 19.454c.816 13.055-3.853 26.011-12.809 35.544C150.721 314.532 138.081 320 125 320s-25.721-5.468-34.677-15.002c-8.956-9.533-13.625-22.489-12.809-35.544L78.73 250H20v190c0 11.028 8.972 20 20 20h190v-69.375c0-2.761 1.141-5.398 3.153-7.288s4.719-2.852 7.471-2.692zM460 270c0-11.028-8.972-20-20-20h-49.375a9.998 9.998 0 0 1-9.98-10.624l1.88-30.078c.48-7.679-2.156-14.995-7.424-20.603C369.832 183.088 362.694 180 355 180s-14.832 3.088-20.101 8.695c-5.268 5.607-7.904 12.924-7.424 20.603l1.88 30.078a10.002 10.002 0 0 1-9.98 10.624H250v58.73l19.454-1.216c13.049-.82 26.01 3.853 35.544 12.809S320 341.919 320 355s-5.468 25.721-15.002 34.677c-9.533 8.956-22.488 13.62-35.544 12.809L250 401.27V460h190c11.028 0 20-8.972 20-20V270zm-30 30c-5.522 0-10 4.478-10 10v2c0 5.522 4.478 10 10 10s10-4.478 10-10v-2c0-5.522-4.478-10-10-10z"/></svg>